<?xml version="1.0" encoding="UTF-8"?>
<svg xmlns="http://www.w3.org/2000/svg" xmlns:xlink="http://www.w3.org/1999/xlink" viewBox="0 0 50 50" width="50px" height="50px">
<g id="surface31306254">
<path style=" stroke:none;fill-rule:nonzero;fill:rgb(0%,67.843139%,70.980394%);fill-opacity:1;" d="M 12.238281 0.640625 C 5.847656 0.640625 0.640625 5.847656 0.640625 12.238281 L 0.640625 37.761719 C 0.640625 44.152344 5.847656 49.359375 12.238281 49.359375 L 37.761719 49.359375 C 44.152344 49.359375 49.359375 44.152344 49.359375 37.761719 L 49.359375 12.238281 C 49.359375 5.847656 44.152344 0.640625 37.761719 0.640625 Z M 11.078125 14.558594 L 38.921875 14.558594 C 39.128906 14.558594 39.324219 14.582031 39.511719 14.640625 L 28.109375 26.03125 C 26.390625 27.75 23.597656 27.75 21.878906 26.03125 L 10.488281 14.640625 C 10.675781 14.582031 10.871094 14.558594 11.078125 14.558594 Z M 8.839844 16.289062 L 17.5625 25 L 8.839844 33.710938 C 8.785156 33.527344 8.761719 33.328125 8.761719 33.121094 L 8.761719 16.878906 C 8.761719 16.671875 8.785156 16.472656 8.839844 16.289062 Z M 41.160156 16.289062 C 41.214844 16.472656 41.238281 16.671875 41.238281 16.878906 L 41.238281 33.121094 C 41.238281 33.328125 41.214844 33.527344 41.160156 33.710938 L 32.425781 25 Z M 19.199219 26.636719 L 20.234375 27.679688 C 21.542969 28.992188 23.273438 29.640625 24.988281 29.640625 C 26.71875 29.640625 28.433594 28.992188 29.746094 27.679688 L 30.789062 26.636719 L 39.511719 35.359375 C 39.324219 35.417969 39.128906 35.441406 38.921875 35.441406 L 11.078125 35.441406 C 10.871094 35.441406 10.675781 35.417969 10.488281 35.359375 Z M 19.199219 26.636719 "/>
</g>
</svg>
